# xmcd
#
# Track frame offsets:
#	225
#	30955
#	51237
#	73364
#	91943
#	105533
#	138832
#	155315
#	175125
#	209210
#	238722
#	273159
#
# Disc length: 4102 seconds
#
# Revision: 0
# Processed by: cddbd v1.5.2PL0 Copyright (c) Steve Scherf et al.
# Submitted via: audiograbber 1.83.01
#
DISCID=a510030c
DTITLE=Krang - Brussel
DYEAR=1900
DGENRE=
TTITLE0=Ketterse Fanfare
TTITLE1=Hoeren
TTITLE2=Pantani
TTITLE3=Alle Dagen
TTITLE4=Rijk Alleen
TTITLE5=Soogdier
TTITLE6=Geil
TTITLE7=Kraaien
TTITLE8=Pad
TTITLE9=Junkie
TTITLE10=Maan
TTITLE11=Hol
EXTD=
EXTT0=
EXTT1=
EXTT2=
EXTT3=
EXTT4=
EXTT5=
EXTT6=
EXTT7=
EXTT8=
EXTT9=
EXTT10=
EXTT11=
PLAYORDER=
